<svg width="39" height="39" viewBox="0 0 39 39" fill="none" xmlns="http://www.w3.org/2000/svg">
<path d="M30.8588 11.4075C30.9471 11.6366 31.1026 11.8336 31.3049 11.9728C31.5071 12.112 31.7467 12.1868 31.9922 12.1875C32.1424 12.1864 32.2912 12.1575 32.4309 12.1022C32.731 11.9851 32.9725 11.754 33.1026 11.4595C33.2328 11.1649 33.2411 10.8307 33.1256 10.53C32.5618 9.08599 31.7719 7.74076 30.7856 6.54473C30.5738 6.31824 30.2836 6.181 29.9742 6.16097C29.6647 6.14093 29.3593 6.23961 29.12 6.43691C28.8808 6.63421 28.7258 6.91528 28.6865 7.22288C28.6473 7.53049 28.7267 7.84149 28.9088 8.09255C29.7301 9.08737 30.3883 10.2063 30.8588 11.4075ZM26.8125 6.0938C27.1357 6.0938 27.4457 5.96539 27.6743 5.73683C27.9028 5.50827 28.0313 5.19828 28.0313 4.87505C28.0259 4.71118 27.9875 4.55008 27.9184 4.40139C27.8493 4.25271 27.7509 4.1195 27.6291 4.00973C27.5252 3.89705 27.3989 3.80737 27.2582 3.7465C27.1176 3.68562 26.9657 3.6549 26.8125 3.6563C26.4893 3.6563 26.1793 3.7847 25.9507 4.01326C25.7222 4.24182 25.5938 4.55181 25.5938 4.87505C25.5985 5.05092 25.6412 5.22369 25.7191 5.38148C25.7969 5.53927 25.908 5.67833 26.0447 5.78911C26.2574 5.97695 26.5289 6.08471 26.8125 6.0938ZM10.9688 15.8438C10.9688 17.5311 11.4691 19.1805 12.4065 20.5835C13.344 21.9865 14.6763 23.0799 16.2352 23.7256C17.7941 24.3714 19.5095 24.5403 21.1644 24.2111C22.8193 23.8819 24.3394 23.0694 25.5325 21.8763C26.7256 20.6832 27.5381 19.1631 27.8673 17.5082C28.1965 15.8533 28.0276 14.1379 27.3818 12.579C26.7361 11.0201 25.6427 9.68775 24.2397 8.75032C22.8368 7.8129 21.1873 7.31255 19.5 7.31255C17.2374 7.31255 15.0674 8.21137 13.4675 9.81129C11.8676 11.4112 10.9688 13.5812 10.9688 15.8438ZM25.5938 15.8438C25.5938 17.049 25.2364 18.2272 24.5668 19.2293C23.8972 20.2314 22.9455 21.0125 21.832 21.4737C20.7185 21.9349 19.4932 22.0556 18.3112 21.8205C17.1291 21.5853 16.0433 21.005 15.1911 20.1527C14.3388 19.3005 13.7585 18.2147 13.5233 17.0326C13.2882 15.8506 13.4089 14.6253 13.8701 13.5118C14.3313 12.3983 15.1124 11.4466 16.1145 10.777C17.1166 10.1074 18.2948 9.75005 19.5 9.75005C21.1162 9.75005 22.6661 10.3921 23.8089 11.5349C24.9517 12.6777 25.5938 14.2276 25.5938 15.8438Z" fill="white"/>
<path d="M37.4276 32.041L30.6635 25.2769C32.9007 22.6432 34.1276 19.2994 34.1248 15.8438C34.1248 15.5205 33.9964 15.2106 33.7678 14.982C33.5392 14.7534 33.2292 14.625 32.906 14.625C32.5828 14.625 32.2728 14.7534 32.0442 14.982C31.8157 15.2106 31.6873 15.5205 31.6873 15.8438C31.6857 17.8255 31.201 19.7769 30.2751 21.5289C29.3491 23.281 28.0099 24.7808 26.3735 25.8985L25.1548 26.6297C23.4133 27.5477 21.4744 28.0274 19.5059 28.0274C17.5373 28.0274 15.5984 27.5477 13.857 26.6297L12.6382 25.8985C10.2642 24.2629 8.5468 21.8388 7.79117 19.0567C7.03554 16.2746 7.29058 13.3147 8.51099 10.7029C9.7314 8.09105 11.8382 5.99641 14.457 4.79107C17.0758 3.58573 20.0371 3.34775 22.8148 4.11941C22.9724 4.17664 23.1401 4.20075 23.3074 4.19022C23.4747 4.17969 23.6381 4.13474 23.7873 4.05819C23.9364 3.98165 24.0682 3.87514 24.1743 3.74535C24.2805 3.61555 24.3587 3.46525 24.4041 3.30385C24.4495 3.14245 24.4611 2.97341 24.4382 2.80732C24.4152 2.64123 24.3583 2.48165 24.2709 2.33857C24.1835 2.19549 24.0675 2.07198 23.9302 1.97576C23.7929 1.87955 23.6372 1.8127 23.4729 1.7794C20.4636 0.940068 17.2647 1.08641 14.3446 2.19701C11.4246 3.3076 8.93691 5.32407 7.246 7.95103C5.5551 10.578 4.74984 13.6774 4.94818 16.7952C5.14652 19.913 6.33804 22.8854 8.3482 25.2769L1.57195 32.041C1.40007 32.2114 1.28285 32.4292 1.23524 32.6666C1.18762 32.9039 1.21176 33.1501 1.30459 33.3736C1.39742 33.5972 1.55473 33.7881 1.75645 33.9219C1.95818 34.0557 2.19519 34.1264 2.43726 34.125H6.43476L7.3732 36.9525C7.43849 37.1504 7.55344 37.3283 7.70707 37.4691C7.86069 37.61 8.04787 37.709 8.2507 37.7569L8.53101 37.7813C8.69141 37.7822 8.85041 37.7515 8.9989 37.6908C9.14739 37.6302 9.28245 37.5408 9.39633 37.4278L16.6357 30.1885C18.5261 30.569 20.4734 30.569 22.3638 30.1885L29.6032 37.4278C29.7171 37.5408 29.8521 37.6302 30.0006 37.6908C30.1491 37.7515 30.3081 37.7822 30.4685 37.7813H30.7488C30.9517 37.7334 31.1388 37.6343 31.2925 37.4935C31.4461 37.3527 31.561 37.1748 31.6263 36.9769L32.5648 34.125H36.5623C36.8043 34.1264 37.0413 34.0557 37.2431 33.9219C37.4448 33.7881 37.6021 33.5972 37.6949 33.3736C37.7878 33.1501 37.8119 32.9039 37.7643 32.6666C37.7167 32.4292 37.5995 32.2114 37.4276 32.041ZM13.8813 29.4938L9.00633 34.3688L8.40914 32.5894C8.34348 32.3433 8.20236 32.124 8.00562 31.9622C7.80888 31.8004 7.56641 31.7044 7.31226 31.6875H5.37445L9.93258 27.1294L11.2854 27.9338C11.7329 28.2355 12.1967 28.5121 12.6748 28.7625L13.8813 29.4938ZM31.6873 31.6875C31.4318 31.6869 31.1825 31.7665 30.9747 31.9152C30.767 32.064 30.6112 32.2742 30.5294 32.5163L29.9323 34.2957L25.0573 29.4207L26.276 28.7016C26.7541 28.4512 27.2179 28.1745 27.6654 27.8728L29.0182 27.0685L33.6251 31.6875H31.6873Z" fill="white"/>
</svg>
