<svg width="31" height="31" viewBox="0 0 31 31" fill="none" xmlns="http://www.w3.org/2000/svg">
<path d="M2.614 0.866699H29.1186C30.0171 0.866699 30.8264 1.65842 30.8264 2.53732V28.4658C30.8264 29.3447 30.0171 30.1364 29.1186 30.1364H2.614C1.71556 30.1364 0.90625 29.3447 0.90625 28.4658V2.53732C0.90625 1.65842 1.71556 0.866699 2.614 0.866699ZM22.1539 17.3015H26.2868L26.4664 13.4344H22.1539V10.5783C22.1539 9.47998 22.3782 8.86404 23.8157 8.86404H26.3313L26.4219 5.25983C26.4219 5.25983 25.2992 5.08404 23.682 5.08404C19.7289 5.08404 17.9766 7.50139 17.9766 10.0945V13.4344H15.057V17.3015H17.9766V28.0242H22.1539V17.3015Z" fill="#DC9F25"/>
</svg>
