<svg width="42" height="35" viewBox="0 0 42 35" fill="none" xmlns="http://www.w3.org/2000/svg">
<path d="M36.2597 21.5568C41.3697 16.7738 39.8997 10.3742 37.3097 7.6122C35.0697 5.2544 32.4797 3.97449 29.7497 3.97449C26.7397 3.97449 24.0097 5.65859 22.3997 8.48792C20.7897 5.65859 18.0597 3.97449 15.1197 3.97449C12.3897 3.97449 9.79972 5.18706 7.55969 7.54486C4.89967 10.3742 3.42967 16.7739 8.60969 21.5568C10.9897 23.7125 21.7697 34.6256 21.9097 34.7603C22.0496 34.8949 22.1896 34.9624 22.3996 34.9624C22.6096 34.9624 22.8196 34.8276 22.9597 34.7603C23.0997 34.6255 33.8797 23.7798 36.2597 21.5568ZM35.2097 20.5463C33.1097 22.4999 24.5697 31.0552 22.3997 33.2783C20.2297 31.0552 11.7597 22.4999 9.58972 20.5463C5.03969 16.437 6.29969 10.9131 8.60969 8.48792C10.5697 6.39963 12.8097 5.32173 15.1197 5.32173C17.9197 5.32173 20.5097 7.27535 21.7697 10.3741C21.8397 10.5762 22.1197 10.7783 22.3997 10.7783C22.6797 10.7783 22.9597 10.5762 23.0297 10.3741C24.2897 7.27535 26.8097 5.32173 29.6797 5.32173C32.0597 5.32173 34.2298 6.39955 36.1897 8.48792C38.4297 10.8457 39.6897 16.3696 35.2097 20.5463Z" fill="white"/>
<path d="M29.7498 6.66907C29.3298 6.66907 29.0498 6.9385 29.0498 7.34269C29.0498 7.74688 29.3298 8.01631 29.7498 8.01631C31.2897 8.01631 32.7597 8.82469 34.1598 10.3067C34.2998 10.4415 34.4397 10.5088 34.6497 10.5088C34.8597 10.5088 34.9998 10.4415 35.1397 10.3067C35.4197 10.0373 35.4898 9.63307 35.2097 9.36356C33.5298 7.6122 31.7097 6.66907 29.7498 6.66907Z" fill="white"/>
<path d="M8.4 1.34725C8.82 1.34725 9.09997 1.07781 9.09997 0.673624C9.09997 0.269434 8.82 1.26151e-09 8.4 1.26151e-09C3.84997 -7.89421e-05 0 3.70497 0 8.08372C0 8.48791 0.279973 8.75734 0.699973 8.75734C1.11997 8.75734 1.39995 8.48791 1.39995 8.08372C1.40003 4.51335 4.68997 1.34725 8.4 1.34725Z" fill="white"/>
<path d="M8.39979 4.04183C8.81979 4.04183 9.09977 3.77239 9.09977 3.3682C9.09977 2.96401 8.81979 2.69458 8.39979 2.69458C5.59982 2.69458 3.00977 5.25448 3.00977 8.08381C3.00977 8.488 3.28974 8.75743 3.70974 8.75743C4.05977 8.75743 4.40971 8.488 4.40971 8.08381C4.40979 5.99544 6.36977 4.04183 8.39979 4.04183Z" fill="white"/>
<path d="M41.3003 24.9249C40.8803 24.9249 40.6003 25.1944 40.6003 25.5985C40.6003 29.1689 37.3103 32.335 33.6004 32.335C33.1804 32.335 32.9004 32.6045 32.9004 33.0086C32.9004 33.4128 33.1804 33.6823 33.6004 33.6823C38.1504 33.6823 42.0004 29.9772 42.0004 25.5985C42.0003 25.1944 41.7203 24.9249 41.3003 24.9249Z" fill="white"/>
<path d="M37.8004 25.5986C37.8004 27.6196 35.7004 29.6405 33.6004 29.6405C33.1804 29.6405 32.9004 29.91 32.9004 30.3142C32.9004 30.7183 33.1804 30.9878 33.6004 30.9878C36.4704 30.9878 39.2004 28.3605 39.2004 25.5985C39.2004 25.1944 38.9204 24.9249 38.5004 24.9249C38.0804 24.9249 37.8004 25.1944 37.8004 25.5986Z" fill="white"/>
</svg>
