<svg width="29" height="29" viewBox="0 0 29 29" fill="none" xmlns="http://www.w3.org/2000/svg">
<path d="M14.5002 17.0489C15.9049 17.0489 17.0547 15.9048 17.0547 14.4944C17.0547 13.9394 16.8735 13.4239 16.5733 13.0048C16.1088 12.3647 15.3555 11.9399 14.5059 11.9399C13.6563 11.9399 12.903 12.3591 12.4385 13.0048C12.1383 13.4239 11.9571 13.9394 11.9571 14.4944C11.9514 15.9048 13.0955 17.0489 14.5002 17.0489Z" fill="#DC9F25"/>
<path d="M20.0734 11.3791V9.23809V8.9209H19.7563L17.6152 8.92656L17.6266 11.3848L20.0734 11.3791Z" fill="#DC9F25"/>
<path d="M26.7344 0H2.26562C1.01387 0 0 1.01387 0 2.26562V26.7344C0 27.9861 1.01387 29 2.26562 29H26.7344C27.9861 29 29 27.9861 29 26.7344V2.26562C29 1.01387 27.9861 0 26.7344 0ZM21.75 13.0104V18.9463C21.75 20.4926 20.4926 21.75 18.9463 21.75H10.0537C8.50742 21.75 7.25 20.4926 7.25 18.9463V13.0104V10.048C7.25 8.50176 8.50742 7.24434 10.0537 7.24434H18.9463C20.4926 7.24434 21.75 8.50176 21.75 10.048V13.0104Z" fill="#DC9F25"/>
<path d="M18.4648 14.4999C18.4648 16.6862 16.6863 18.4647 14.5 18.4647C12.3137 18.4647 10.5352 16.6862 10.5352 14.4999C10.5352 13.9731 10.6428 13.469 10.8297 13.0103H8.66602V18.9462C8.66602 19.7108 9.28906 20.3339 10.0537 20.3339H18.9463C19.7109 20.3339 20.334 19.7108 20.334 18.9462V13.0103H18.1703C18.3629 13.469 18.4648 13.9731 18.4648 14.4999Z" fill="#DC9F25"/>
</svg>
