<svg width="50" height="50" viewBox="0 0 50 50" fill="none" xmlns="http://www.w3.org/2000/svg">
<path d="M33.9224 20.2445L31.4224 17.7445C31.0965 17.4187 30.5699 17.4187 30.2441 17.7445L21.6667 26.3219L18.9227 23.5778C18.5968 23.2519 18.0701 23.2519 17.7444 23.5778L15.2444 26.0778C14.9185 26.4035 14.9185 26.9303 15.2444 27.2561L21.0776 33.0892C21.2401 33.2526 21.4535 33.3334 21.6667 33.3334C21.8801 33.3334 22.0934 33.2517 22.2559 33.0892L33.9224 21.4228C34.2482 21.097 34.2482 20.5704 33.9224 20.2445ZM21.6667 31.3218L17.0119 26.6669L18.3335 25.3453L21.0776 28.0893C21.4035 28.4152 21.9301 28.4152 22.2559 28.0893L30.8333 19.512L32.1549 20.8336L21.6667 31.3218Z" fill="white"/>
<path d="M49.8061 29.4668L46.0845 25.0002L49.8061 20.5336C50.0137 20.2853 50.0578 19.9395 49.9212 19.647C49.7837 19.3545 49.4895 19.167 49.1662 19.167H38.2222L37.4913 14.0497C37.433 13.6388 37.0814 13.3339 36.6664 13.3339H30.3014C29.3198 12.5155 25.5332 9.36059 25.5332 9.36059C25.224 9.1023 24.7757 9.1023 24.4665 9.36059L19.6982 13.3339H13.3333C12.9183 13.3339 12.5675 13.6388 12.5083 14.0489L11.7775 19.1671H0.833757C0.510424 19.1671 0.216289 19.3546 0.0787916 19.6471C-0.0587058 19.9405 -0.0136871 20.2863 0.193828 20.5337L3.91544 25.0003L0.193828 29.4669C-0.0136871 29.7153 -0.0578269 30.0611 0.0787916 30.3535C0.216289 30.6469 0.510424 30.8335 0.833757 30.8335H11.7777C12.0001 32.3877 12.5093 35.9518 12.5093 35.9518C12.5676 36.3626 12.9193 36.6668 13.3334 36.6668H19.6983L24.4666 40.6401C24.6216 40.7693 24.8107 40.8334 24.9999 40.8334C25.189 40.8334 25.3791 40.7693 25.5332 40.6401L30.3006 36.6668C31.5956 36.6668 36.6679 36.6701 36.6663 36.6668C37.0813 36.6668 37.4321 36.3618 37.4912 35.9518C37.4912 35.9518 38.0004 32.3877 38.2229 30.8335H49.166C49.4894 30.8335 49.7835 30.646 49.921 30.3535C50.0587 30.0601 50.0137 29.7143 49.8061 29.4668ZM2.61292 29.1668L5.6404 25.5336C5.89792 25.2244 5.89792 24.7753 5.6404 24.4669L2.61292 20.8336H10.7211L7.69358 24.4668C7.43607 24.776 7.43607 25.2251 7.69358 25.5335L10.7211 29.1667H2.61292V29.1668ZM36.8606 29.466C36.8198 29.5151 36.7839 29.5693 36.7556 29.6268C36.6973 29.7435 36.6948 29.7485 35.9448 35C29.8041 35 29.7982 35.0034 29.6274 35.0884C29.5699 35.1176 29.5158 35.1526 29.4666 35.1934L25 38.915L20.5334 35.1934C20.3843 35.0684 20.195 35 20.0001 35H14.0561C13.3061 29.7485 13.3035 29.7435 13.2452 29.6268C13.216 29.5693 13.1811 29.5152 13.1403 29.466L9.41865 25.0002L13.1403 20.5336C13.2395 20.4145 13.3036 20.2711 13.3252 20.1178L14.0561 15.0004H20.0001C20.1951 15.0004 20.3834 14.9321 20.5334 14.8071L25 11.0855C29.5399 14.8687 29.5433 14.8703 29.6274 14.9129C29.7433 14.9704 29.8708 15.0004 29.9999 15.0004H35.9439L36.6748 20.1187C36.6964 20.272 36.7606 20.4154 36.8597 20.5345L40.5813 25.0002L36.8606 29.466ZM39.2788 29.1668L42.3063 25.5336C42.5638 25.2244 42.5638 24.7753 42.3063 24.4669L39.2788 20.8337H47.387L44.3595 24.4669C44.102 24.7761 44.102 25.2252 44.3595 25.5336L47.387 29.1668H39.2788Z" fill="white"/>
</svg>
