<svg width="30" height="31" viewBox="0 0 30 31" fill="none" xmlns="http://www.w3.org/2000/svg">
<path d="M28.5 0.916504H1.5C1.10218 0.916504 0.720644 1.07015 0.43934 1.34364C0.158035 1.61713 0 1.98806 0 2.37484V28.6248C0 29.0116 0.158035 29.3825 0.43934 29.656C0.720644 29.9295 1.10218 30.0832 1.5 30.0832H28.5C28.8978 30.0832 29.2794 29.9295 29.5607 29.656C29.842 29.3825 30 29.0116 30 28.6248V2.37484C30 1.98806 29.842 1.61713 29.5607 1.34364C29.2794 1.07015 28.8978 0.916504 28.5 0.916504ZM23.5785 13.6405C23.415 13.6565 23.25 13.6638 23.0865 13.6653C22.1965 13.6664 21.3203 13.4519 20.537 13.0412C19.7537 12.6305 19.088 12.0365 18.6 11.313V19.3236C18.6003 20.495 18.2432 21.6402 17.574 22.6144C16.9048 23.5885 15.9534 24.3478 14.8403 24.7962C13.7272 25.2447 12.5022 25.3621 11.3205 25.1336C10.1387 24.9051 9.05316 24.3411 8.20116 23.5127C7.34916 22.6844 6.76897 21.629 6.53397 20.4801C6.29898 19.3311 6.41974 18.1402 6.88097 17.058C7.34221 15.9758 8.12321 15.0509 9.12518 14.4002C10.1272 13.7496 11.3051 13.4025 12.51 13.4028C12.6375 13.4028 12.7605 13.4144 12.8865 13.4217V16.3384C12.4668 16.289 12.0412 16.3235 11.6358 16.4399C11.2303 16.5562 10.8536 16.752 10.5289 17.0151C10.2041 17.2782 9.93811 17.6031 9.74723 17.9698C9.55635 18.3365 9.44462 18.7373 9.41891 19.1475C9.3932 19.5578 9.45404 19.9688 9.59771 20.3553C9.74138 20.7418 9.96483 21.0957 10.2543 21.3952C10.5438 21.6947 10.8933 21.9335 11.2812 22.0969C11.6691 22.2602 12.0873 22.3448 12.51 22.3453C13.3442 22.3599 14.1511 22.0557 14.757 21.498C15.3629 20.9403 15.7195 20.1736 15.75 19.363L15.78 5.75525H18.651C18.7821 6.96779 19.3474 8.09693 20.2482 8.94521C21.149 9.79349 22.3278 10.3069 23.5785 10.3957V13.6405Z" fill="#DC9E26"/>
</svg>
