<svg width="28" height="28" viewBox="0 0 28 28" fill="none" xmlns="http://www.w3.org/2000/svg">
<path d="M14.0059 1C11.7466 1.00243 9.52693 1.59251 7.56498 2.71223C5.60303 3.83196 3.96639 5.44277 2.81598 7.3863C1.66557 9.32982 1.041 11.5392 1.00366 13.7971C0.966329 16.055 1.51752 18.2837 2.60305 20.2642L1 27L7.73886 25.3977C9.47696 26.3507 11.41 26.894 13.3903 26.986C15.3706 27.078 17.3458 26.7162 19.1648 25.9284C20.9839 25.1406 22.5987 23.9476 23.8858 22.4406C25.173 20.9335 26.0984 19.1522 26.5914 17.2329C27.0844 15.3136 27.1319 13.3071 26.7304 11.3666C26.3288 9.42614 25.4887 7.60311 24.2744 6.03683C23.06 4.47055 21.5035 3.20248 19.7238 2.32951C17.9441 1.45655 15.9883 1.00179 14.0059 1ZM7.50294 6.90744H11.0478C11.2082 6.90744 11.3621 6.97115 11.4755 7.08454C11.589 7.19793 11.6527 7.35173 11.6527 7.51209C11.6329 8.31846 11.7684 9.1211 12.052 9.87628C12.1741 10.1291 12.2009 10.4174 12.1276 10.6884C12.0543 10.9594 11.8857 11.1948 11.6527 11.3516L10.4126 12.5609C10.9625 13.6342 11.6814 14.6121 12.542 15.4572C13.3806 16.3314 14.355 17.0644 15.4275 17.6279L16.6373 16.3884C17.2422 15.7837 17.5205 15.7837 18.1133 15.9893C18.8688 16.2727 19.6718 16.4082 20.4786 16.3884C20.6366 16.3957 20.7863 16.4618 20.8982 16.5736C21.01 16.6855 21.0761 16.835 21.0835 16.993V20.5363C21.0761 20.6943 21.01 20.8438 20.8982 20.9557C20.7863 21.0675 20.6366 21.1336 20.4786 21.1409C16.9202 20.986 13.5471 19.5115 11.0176 17.0051C8.50613 14.4793 7.03027 11.1062 6.87987 7.54837C6.88131 7.38194 6.94686 7.22247 7.0629 7.1031C7.17894 6.98373 7.33654 6.91366 7.50294 6.90744Z" stroke="white" stroke-width="2" stroke-linecap="round" stroke-linejoin="round"/>
</svg>
